<svg width="55" height="55" viewBox="0 0 55 55" fill="none" xmlns="http://www.w3.org/2000/svg">
<path d="M24.8073 50.4167C23.7761 50.4167 22.8884 50.0729 22.1444 49.3854C21.4004 48.6979 20.9512 47.8576 20.7969 46.8646L20.2813 43.0833C19.7847 42.8924 19.3172 42.6632 18.8788 42.3958C18.4403 42.1285 18.0102 41.842 17.5886 41.5365L14.0365 43.026C13.0816 43.4462 12.1268 43.4844 11.1719 43.1406C10.217 42.7969 9.47224 42.1858 8.93752 41.3073L6.24481 36.6094C5.71009 35.7309 5.55731 34.7951 5.78647 33.8021C6.01564 32.809 6.53127 31.9878 7.33335 31.3385L10.3698 29.0469C10.3316 28.7795 10.3125 28.5213 10.3125 28.2723V26.7254C10.3125 26.4779 10.3316 26.2205 10.3698 25.9531L7.33335 23.6615C6.53127 23.0122 6.01564 22.191 5.78647 21.1979C5.55731 20.2049 5.71009 19.2691 6.24481 18.3906L8.93752 13.6927C9.47224 12.8142 10.217 12.2031 11.1719 11.8594C12.1268 11.5156 13.0816 11.5538 14.0365 11.974L17.5886 13.4635C18.0087 13.158 18.4479 12.8715 18.9063 12.6042C19.3646 12.3368 19.8229 12.1076 20.2813 11.9167L20.7969 8.13542C20.9497 7.14236 21.3988 6.30208 22.1444 5.61458C22.8899 4.92708 23.7776 4.58333 24.8073 4.58333H30.1927C31.224 4.58333 32.1124 4.92708 32.8579 5.61458C33.6035 6.30208 34.0519 7.14236 34.2031 8.13542L34.7188 11.9167C35.2153 12.1076 35.6836 12.3368 36.1236 12.6042C36.5636 12.8715 36.9929 13.158 37.4115 13.4635L40.9636 11.974C41.9184 11.5538 42.8733 11.5156 43.8281 11.8594C44.783 12.2031 45.5278 12.8142 46.0625 13.6927L48.7552 18.3906C49.2899 19.2691 49.4427 20.2049 49.2136 21.1979C48.9844 22.191 48.4688 23.0122 47.6667 23.6615L44.6302 25.9531C44.6684 26.2205 44.6875 26.4787 44.6875 26.7277V28.2723C44.6875 28.5213 44.6493 28.7795 44.5729 29.0469L47.6094 31.3385C48.4115 31.9878 48.9271 32.809 49.1563 33.8021C49.3854 34.7951 49.2327 35.7309 48.6979 36.6094L45.9479 41.3073C45.4132 42.1858 44.6684 42.7969 43.7136 43.1406C42.7587 43.4844 41.8038 43.4462 40.849 43.026L37.4115 41.5365C36.9913 41.842 36.5521 42.1285 36.0938 42.3958C35.6354 42.6632 35.1771 42.8924 34.7188 43.0833L34.2031 46.8646C34.0504 47.8576 33.602 48.6979 32.8579 49.3854C32.1139 50.0729 31.2255 50.4167 30.1927 50.4167H24.8073ZM27.6146 35.5208C29.8299 35.5208 31.7205 34.7378 33.2865 33.1719C34.8524 31.6059 35.6354 29.7153 35.6354 27.5C35.6354 25.2847 34.8524 23.3941 33.2865 21.8281C31.7205 20.2622 29.8299 19.4792 27.6146 19.4792C25.3611 19.4792 23.4606 20.2622 21.9129 21.8281C20.3653 23.3941 19.5922 25.2847 19.5938 27.5C19.5953 29.7153 20.3691 31.6059 21.9152 33.1719C23.4613 34.7378 25.3611 35.5208 27.6146 35.5208Z" fill="white"/>
</svg>
